# xmcd
#
# Track frame offsets: 
#        150
#        15310
#        37880
#        51715
#        65187
#        78622
#        89290
#        102545
#        117310
#        130122
#        142717
#        166832
#        184940
#        206365
#        222165
#        240867
#        259015
#        274247
#
# Disc length: 3941 seconds
#
# Revision: 0
# Processed by: cddbd v1.5.2PL0 Copyright (c) Steve Scherf et al.
# Submitted via: ExactAudioCopy v0.95a4
#
DISCID=fb0f6312
DTITLE=Gwen McCrae - Rockin' Chair - Something So Right
DYEAR=1900
DGENRE=Soul
TTITLE0=Rockin' Chair
TTITLE1=Move Me Baby
TTITLE2=He Keeps Something Groovy Going On
TTITLE3=Let Them Talk
TTITLE4=For Your Love
TTITLE5=It's Worth The Hurt
TTITLE6=90% Of Me Is You
TTITLE7=It Keeps On Raining
TTITLE8=He Don't Ever Lose His Groove
TTITLE9=Your Love Is Worse Than A Cold Love
TTITLE10=Something So Right
TTITLE11=Tears On My Pillow
TTITLE12=Love Without Sex
TTITLE13=Mr. Everything
TTITLE14=Iron Woman
TTITLE15=Damn Right It's Good
TTITLE16=Let Nature Take Its Course
TTITLE17=I Got Nothing To Lose But The Blues
EXTD=
EXTT0=
EXTT1=
EXTT2=
EXTT3=
EXTT4=
EXTT5=
EXTT6=
EXTT7=
EXTT8=
EXTT9=
EXTT10=
EXTT11=
EXTT12=
EXTT13=
EXTT14=
EXTT15=
EXTT16=
EXTT17=
PLAYORDER=
